<svg id="Capa_2" data-name="Capa 2" xmlns="http://www.w3.org/2000/svg" viewBox="0 0 709.68 659.68"><defs><style>.cls-1,.cls-5,.cls-7{fill:none;}.cls-1,.cls-3{stroke:#232322;stroke-width:2px;}.cls-1,.cls-3,.cls-5,.cls-8{stroke-linecap:round;stroke-linejoin:round;}.cls-2{fill:#232322;}.cls-3,.cls-6{fill:#fff;}.cls-4,.cls-8{fill:#1d1d1b;}.cls-5,.cls-7,.cls-8{stroke:#fff;}.cls-7{stroke-miterlimit:10;}</style></defs><title>ERROR 404-SVG</title><line class="cls-1" x1="165.32" y1="119.17" x2="207.7" y2="119.17"/><line class="cls-1" x1="189.32" y1="119.17" x2="189.32" y2="143.3"/><line class="cls-1" x1="222.85" y1="144.29" x2="222.85" y2="170.99"/><line class="cls-1" x1="155.62" y1="144.29" x2="155.62" y2="170.99"/><line class="cls-1" x1="222.94" y1="199.33" x2="222.94" y2="226.03"/><line class="cls-1" x1="155.7" y1="199.33" x2="155.7" y2="226.03"/><line class="cls-1" x1="189.44" y1="171.99" x2="189.44" y2="198.69"/><line class="cls-1" x1="256.38" y1="171.99" x2="256.38" y2="198.69"/><line class="cls-1" x1="122.21" y1="171.99" x2="122.21" y2="198.69"/><line class="cls-1" x1="271.28" y1="143.94" x2="155.82" y2="143.94"/><line class="cls-1" x1="241.72" y1="227" x2="137.21" y2="227"/><line class="cls-1" x1="285.66" y1="171.34" x2="105.95" y2="171.34"/><line class="cls-1" x1="271.28" y1="199.33" x2="75.47" y2="199.33"/><line class="cls-1" x1="599.94" y1="375.62" x2="599.94" y2="402.31"/><line class="cls-1" x1="600.02" y1="430.66" x2="600.02" y2="457.36"/><line class="cls-1" x1="566.53" y1="403.31" x2="566.53" y2="430.01"/><line class="cls-1" x1="633.47" y1="403.31" x2="633.47" y2="430.01"/><line class="cls-1" x1="499.29" y1="403.31" x2="499.29" y2="430.01"/><line class="cls-1" x1="667.79" y1="402.67" x2="483.04" y2="402.67"/><line class="cls-1" x1="648.36" y1="430.66" x2="470.17" y2="430.66"/><polygon class="cls-1" points="387.28 329.84 305.92 329.84 305.92 459.34 285.15 589.72 302.85 589.72 334.51 459.78 349.83 375.62 377.06 459.78 366.17 589.72 381.15 589.72 404.3 459.78 387.28 329.84"/><polyline class="cls-1" points="316.72 330.57 316.72 345.77 305.92 358.15"/><path class="cls-1" d="M334.85,219l44.46,33.35a2.16,2.16,0,0,0,1.06.41L432,258.28a2.15,2.15,0,0,1,1.91,2.14v9a2.14,2.14,0,0,1-2.22,2.15L373,269.49a2.26,2.26,0,0,1-1-.28l-47.12-26.38"/><path class="cls-1" d="M379.41,269.83c0,.39,0,.14,0,.57a210,210,0,0,0,2.09,31,216.62,216.62,0,0,0,5.79,27.75c-31.49.71-77.55,1.66-81.37.71l3.15-47A141.45,141.45,0,0,0,306.43,253c-1.82-9.09-3.61-13.18-4.94-22.13a105.9,105.9,0,0,1-.68-25.53,22.53,22.53,0,0,1,5-9.43c7.06-7.82,17.32-7.65,19-7.59A13.58,13.58,0,0,0,352,188h87.3a2.68,2.68,0,0,0,1.32-.34l39.58-21.61a2.75,2.75,0,0,1,3.59.86l2.22,3.25a2.76,2.76,0,0,1-.63,3.76l-40.56,30.34a2.65,2.65,0,0,1-1.26.52l-58.69,8.43a2.76,2.76,0,0,0-2.36,2.57c-.73,12.32-1.42,24.07-2.14,36.39,0,.43,0-.1,0,.28"/><path class="cls-2" d="M374.52,121.06c-2-11.2-9.78-19.19-17.42-17.84-3.53.62-6.39,3.13-8.28,6.73,0,0,0,0,0,0a13.86,13.86,0,0,0-1.59-.09H326.24A16,16,0,0,0,311.31,120h0v0a15,15,0,0,0-.94,4.61c0,.34,0,.68,0,1q-.47,2.39-1.12,4.93a87.23,87.23,0,0,1-4.85,13.77l.08,0a22.59,22.59,0,0,0-1.44,7.93c0,11.94,9.22,21.61,20.6,21.61a20.37,20.37,0,0,0,17.56-10.36l0,0h19.41a0,0,0,0,0,.05,0V143.78a0,0,0,0,1,.05,0,9.91,9.91,0,0,0,3.52,0C371.89,142.44,376.49,132.26,374.52,121.06Z"/><line class="cls-3" x1="325.79" y1="173.13" x2="324.89" y2="188.36"/><path class="cls-2" d="M336.31,174.74h-4a38.53,38.53,0,0,0,7.91,10.71,34,34,0,0,0,11,7,46.17,46.17,0,0,0,1-9.69,47,47,0,0,0-.35-5.47l-5.48.28-2.85-.19-2.42-.47Z"/><path class="cls-3" d="M368.69,148.44c-1.39,8.3-9.55,12.86-19.88,12.86-11.31,0-20.83-5.81-20.83-15.25,0-.41,0-.82.07-1.22-.18.27-.37.55-.54.83a5.53,5.53,0,1,0-3.22,10.48c0,.3,0,.6,0,.9,0,12.32,10.34,22.3,23.1,22.3s23.11-10,23.11-22.3A21.49,21.49,0,0,0,368.69,148.44Z"/><path class="cls-3" d="M379.14,134.74H355.23c-8,0-14.51,5.58-14.51,12.46s6.5,12.45,14.51,12.45a15.41,15.41,0,0,0,11.48-4.85,3,3,0,0,1,4.19-.23,12.28,12.28,0,0,0,8.24,3.14,11.5,11.5,0,1,0,0-23Z"/><path class="cls-1" d="M488.81,151.21a31,31,0,0,0,10.72-9.06,4.11,4.11,0,0,1,4.09-1.79,4.07,4.07,0,0,1,2.55,1.79l1.53,5.11c-.43,2.25-1,4.67-1.7,7.23-.66,2.36-1.39,4.55-2.13,6.55a43.23,43.23,0,0,1-16.59,10.85l-5.11-7.53a23.2,23.2,0,0,1-1.4-5.87,22.41,22.41,0,0,1,0-4.72l-2-5.24a3.36,3.36,0,0,1,5.75-3.44,11.37,11.37,0,0,0,4.34,6.12Z"/><path class="cls-1" d="M433.91,271.09a41.16,41.16,0,0,0,9.58-1.28,40.32,40.32,0,0,0,6.25-2.17,46,46,0,0,0,7.41-5.49,46.85,46.85,0,0,0,5.11-5.49,19.06,19.06,0,0,0,.51-4.6,19.53,19.53,0,0,0-.51-4.07,2.84,2.84,0,0,0-5.11-1.29,26.69,26.69,0,0,1-4.72,3.58,26,26,0,0,1-4.34,2c.29-1.62.59-3.23.89-4.85a3.41,3.41,0,1,0-6.77-.77,38.69,38.69,0,0,1-3.32,5.62,38.14,38.14,0,0,1-5,5.74Z"/><rect class="cls-1" x="129.23" y="547.17" width="106.55" height="58.21"/><circle class="cls-2" cx="141" cy="567.06" r="4.28"/><circle class="cls-2" cx="161.68" cy="567.06" r="4.28"/><circle class="cls-2" cx="182.36" cy="567.06" r="4.28"/><circle class="cls-2" cx="203.04" cy="567.06" r="4.28"/><circle class="cls-2" cx="223.72" cy="567.06" r="4.28"/><rect class="cls-2" x="129.23" y="586.15" width="106.55" height="19.23"/><path class="cls-1" d="M153.06,546.62a115,115,0,0,1-26.72-38.51,76.7,76.7,0,0,1,32.51,23.49,165.78,165.78,0,0,1-18-46.13,92.85,92.85,0,0,1,29.88,38.38,238.46,238.46,0,0,1-3.41-28,242.53,242.53,0,0,1-.25-25.11,146.34,146.34,0,0,1,20.08,52,91.92,91.92,0,0,1,17.7-53.19,109.9,109.9,0,0,1-.08,24.09,111,111,0,0,1-5.36,23.66,140.09,140.09,0,0,1,26.81-37.79,106.37,106.37,0,0,1-4.17,20.94,108.06,108.06,0,0,1-19.49,36.34,83.65,83.65,0,0,1,41.61-23.92,162.52,162.52,0,0,1-29.87,33.75Z"/><path class="cls-4" d="M284.17,589.72l.13,15.66h42.89c0-4.08-3.49-7.66-9.87-10-14.72-5.49-13.58-5.45-13.58-5.45C298.07,589.89,289.84,589.72,284.17,589.72Z"/><path class="cls-4" d="M365.17,589.72l.13,15.66h43.08c0-4.08-3.5-7.62-9.87-10-7.8-3-16.47-5.47-16.47-5.47C376.37,589.87,370.84,589.72,365.17,589.72Z"/><line class="cls-1" x1="98.43" y1="605.38" x2="633.47" y2="605.38"/><circle class="cls-1" cx="565.08" cy="586.4" r="17.79"/><path class="cls-1" d="M561.11,569a17.51,17.51,0,0,1-12.69,23.25"/><path class="cls-1" d="M570,603.15a17.4,17.4,0,0,1,11.24-24.06"/><path class="cls-1" d="M470,468.94a27.58,27.58,0,0,1,.51,5,28.44,28.44,0,0,1-.51,5.75,6.83,6.83,0,0,1,5.11,1.66,6.47,6.47,0,0,1,1.91,3.32,17.53,17.53,0,0,1,5.88-2.43,17.28,17.28,0,0,1,6.51-.12,39.65,39.65,0,0,1-5.75,16.21,19.82,19.82,0,0,0,1.15,16.08,100.07,100.07,0,0,1,14.3,24,102,102,0,0,1,7.53,46.22c.13.4,1.19,3.66,3.7,4.34,3.54.94,7.21-5.58,8-7,2.55-4.44,3.21-8.84,3.48-15,.53-11.94-1.21-12.49-.68-22.12a64.34,64.34,0,0,1,4.34-19.66,21.7,21.7,0,0,1,5.62-8.81A19.84,19.84,0,0,1,539,512a2.46,2.46,0,0,1,2.68.76,2.6,2.6,0,0,1-1.28,3.58,35.83,35.83,0,0,0-8,10.47c-.7,1.4-3.42,7-4,18.68-.45,9.82,1.3,9.83,1.19,19.74-.14,13.3-3.37,21.31-4.12,23.11-1.76,4.19-3.66,8.65-8.17,12.13a23.39,23.39,0,0,1-12.64,4.76H439.28v-4.76l7.78-10.86-2.68-17.23A111.71,111.71,0,0,1,453.57,513l-.51-24.13a24.73,24.73,0,0,1,17-19.91Z"/><line class="cls-1" x1="472.97" y1="495.32" x2="499.29" y2="495.58"/><line class="cls-1" x1="442.59" y1="483.29" x2="462.89" y2="493.96"/><line class="cls-1" x1="436.6" y1="499.32" x2="461.78" y2="499.29"/><line class="cls-1" x1="472.55" y1="500.92" x2="498.17" y2="510.21"/><line class="cls-1" x1="453.39" y1="597.19" x2="469.53" y2="588.81"/><line class="cls-1" x1="457.69" y1="541.89" x2="456.64" y2="576.94"/><path class="cls-1" d="M469.53,588.81a42.91,42.91,0,0,1-.62-20.69c2.56-12.48,10.45-20,18.34-19.79"/><path class="cls-1" d="M495.2,575.06a23.92,23.92,0,0,1-1.3,11.48c-2.4,6.69-7.37,10.19-11.72,9.46"/><circle class="cls-2" cx="513.83" cy="322.03" r="55.32"/><path class="cls-5" d="M550.77,324c-3.41-4.85-6.82-9.77-9-15.26-1.35-3.34-2.31-7-4.77-9.61-4.27-4.56-11.48-4.55-17.61-3.33-4.16.83-8.36,2.06-12.56,1.44s-7.87-2.93-12-2.69c-3.55.2-6.68,2.28-9.61,4.29-1.28.88-2.68,1.94-2.9,3.48-.32,2.25,2,3.91,4,4.91a78.21,78.21,0,0,0,11.28,4.45c5.43,1.67,11.4,4.15,17.13,2.74a33.43,33.43,0,0,0,4.53-1.61l5.68-2.33"/><path class="cls-5" d="M528.35,321.41c-.14,3.3-.51,7-3.15,9a11.18,11.18,0,0,1-4,1.63l-21.77,5.66a12.54,12.54,0,0,1-5.87.57c-1.93-.43-3.74-2.13-3.59-4.11l9.08-4.81c2.8-1.48,5.66-3,7.83-5.32a10.82,10.82,0,0,0,2.29-9.36"/><path class="cls-5" d="M528.13,356.1l-.2-8.52a23.3,23.3,0,0,0-.44-4.72c-1.12-4.69-4.44-7.81-8.63-10.19"/><ellipse class="cls-6" cx="516.89" cy="305.62" rx="3.06" ry="2.62"/><path class="cls-6" d="M490.62,332.38l1-4.78,1,4.78a1,1,0,1,1-2,.42A1,1,0,0,1,490.62,332.38Z"/><path class="cls-6" d="M494.77,330.24l1-4.16,1,4.16a1,1,0,0,1-2,.48A1,1,0,0,1,494.77,330.24Z"/><path class="cls-6" d="M499.23,327.85l1-3.87,1,3.87a1,1,0,0,1-2,.52A1.14,1.14,0,0,1,499.23,327.85Z"/><path class="cls-6" d="M503.43,319.12l-1-4.78a1,1,0,0,1,.79-1.21,1,1,0,0,1,1.21.79,1.48,1.48,0,0,1,0,.42Z"/><path class="cls-6" d="M497.94,319.12l-1-6.55a1,1,0,0,1,.84-1.15,1,1,0,0,1,1.16.85,1.5,1.5,0,0,1,0,.3Z"/><path class="cls-6" d="M493.6,317.53l-1-6.39a1,1,0,1,1,2-.31,1.61,1.61,0,0,1,0,.31Z"/><path class="cls-6" d="M488.81,315.74l-1-6.5a1,1,0,0,1,.84-1.15,1,1,0,0,1,1.16.85,1.5,1.5,0,0,1,0,.3Z"/><path class="cls-6" d="M485,312.37l-1-5a1,1,0,0,1,2-.4,1.07,1.07,0,0,1,0,.4Z"/><ellipse class="cls-6" cx="489.64" cy="300.64" rx="1.68" ry="0.83" transform="translate(-83.07 346.88) rotate(-36.17)"/><circle class="cls-2" cx="451.99" cy="91.21" r="40.98"/><path class="cls-5" d="M444.81,118a20.84,20.84,0,0,1-4.13-12.91c0-9.59,5.57-17.36,12.45-17.36s12.44,7.77,12.44,17.36c0,5.68-1.95,10.73-5,13.9"/><path class="cls-5" d="M458.21,89a12.17,12.17,0,0,1,3.57-7.39c4-4.13,9.83-5,13-2s2.36,8.86-1.68,13a11.89,11.89,0,0,1-8.11,3.79"/><path class="cls-5" d="M444.19,92.87a16.2,16.2,0,0,1-7.4-5.12c-4.22-4.9-5.31-10.87-2.44-13.34s8.62-.5,12.84,4.4a15.6,15.6,0,0,1,4,8.9"/><path class="cls-6" d="M447.19,98.49a3.29,3.29,0,0,1,2.47,2.47,3.06,3.06,0,0,1-1.59-.88A3.1,3.1,0,0,1,447.19,98.49Z"/><path class="cls-6" d="M449.66,98.49a3.1,3.1,0,0,1-.88,1.59,3.06,3.06,0,0,1-1.59.88,3.06,3.06,0,0,1,.88-1.59A3.1,3.1,0,0,1,449.66,98.49Z"/><path class="cls-6" d="M456.59,104.16a3.15,3.15,0,0,1,1.11,1.44,3.11,3.11,0,0,1,.18,1.81,3,3,0,0,1-1.11-1.44A3.11,3.11,0,0,1,456.59,104.16Z"/><path class="cls-6" d="M458.86,105.14a3.3,3.3,0,0,1-3.25,1.29,3.3,3.3,0,0,1,3.25-1.29Z"/><path class="cls-6" d="M440.64,80.66a3.13,3.13,0,0,1,1.1,1.44,3,3,0,0,1,.18,1.81,3.06,3.06,0,0,1-1.1-1.44A3,3,0,0,1,440.64,80.66Z"/><path class="cls-6" d="M442.9,81.64a3.3,3.3,0,0,1-3.24,1.29,3,3,0,0,1,1.44-1.11A3.07,3.07,0,0,1,442.9,81.64Z"/><path class="cls-6" d="M467.91,83.87a3.3,3.3,0,0,1,1.29,3.25,3.3,3.3,0,0,1-1.29-3.25Z"/><path class="cls-6" d="M470.18,84.85A3.15,3.15,0,0,1,468.74,86a3.11,3.11,0,0,1-1.81.18A3,3,0,0,1,468.37,85,3.11,3.11,0,0,1,470.18,84.85Z"/><path class="cls-6" d="M448.82,112.54a3,3,0,0,1,1.82,0,3,3,0,0,1,1.56.92,3,3,0,0,1-1.82,0A3.1,3.1,0,0,1,448.82,112.54Z"/><path class="cls-6" d="M451,111.29a3,3,0,0,1,0,1.81,3.09,3.09,0,0,1-.92,1.57,3,3,0,0,1,0-1.82A3,3,0,0,1,451,111.29Z"/><path class="cls-6" d="M465,111.14a7.54,7.54,0,0,1,2.12-1.92,7.22,7.22,0,0,1,2.65-1.07,7.28,7.28,0,0,1-2.12,1.92A7.5,7.5,0,0,1,465,111.14Z"/><path class="cls-6" d="M431.36,66.48a16,16,0,0,1,2.43,3.45,15.39,15.39,0,0,1,1.54,3.92,15.58,15.58,0,0,1-2.42-3.45A15.79,15.79,0,0,1,431.36,66.48Z"/><path class="cls-6" d="M439.35,65.4a14.28,14.28,0,0,1,.27,4,13.9,13.9,0,0,1-.73,3.94,16,16,0,0,1,.46-7.94Z"/><path class="cls-6" d="M468.86,70.93a11.52,11.52,0,0,1,.29,3.54,10.89,10.89,0,0,1-.7,3.48,12.71,12.71,0,0,1,.41-7Z"/><path class="cls-6" d="M480.75,79.81a6.71,6.71,0,0,1-2.33,1.46,6.85,6.85,0,0,1-2.7.54,6.74,6.74,0,0,1,2.33-1.47A7.1,7.1,0,0,1,480.75,79.81Z"/><path class="cls-6" d="M474,97a4.32,4.32,0,0,1-1.85-1.15A4.21,4.21,0,0,1,471,94a4.32,4.32,0,0,1,1.85,1.15A4.4,4.4,0,0,1,474,97Z"/><path class="cls-6" d="M449.68,74.19a7.18,7.18,0,0,1-2.49,4.62,6.22,6.22,0,0,1,.81-2.55A6.48,6.48,0,0,1,449.68,74.19Z"/><path class="cls-6" d="M437.29,88.83a6.38,6.38,0,0,1-1.64,2.11,6.51,6.51,0,0,1-2.3,1.35,6.24,6.24,0,0,1,1.64-2.1A6.47,6.47,0,0,1,437.29,88.83Z"/><path class="cls-6" d="M424.94,73.05a19.53,19.53,0,0,1,8.13,3.33,17,17,0,0,1-4.26-1.21A17.19,17.19,0,0,1,424.94,73.05Z"/><path class="cls-6" d="M424.82,80.85q2-.43,4-.78a12.17,12.17,0,0,1,2-.31,6.91,6.91,0,0,1,2.05.23.07.07,0,0,1,0,.07l0,0a6.61,6.61,0,0,1-1.95.66,11.25,11.25,0,0,1-2,.12c-1.34,0-2.68.08-4,.08a.05.05,0,0,1-.05,0A0,0,0,0,1,424.82,80.85Z"/><path class="cls-6" d="M435.67,101.54a11.57,11.57,0,0,1,5,4.43,11.42,11.42,0,0,1-5-4.43Z"/><circle class="cls-2" cx="235.13" cy="288.89" r="38.81"/><ellipse class="cls-7" cx="238.85" cy="289.81" rx="19.4" ry="14.98"/><path class="cls-5" d="M223.45,280.71a5.16,5.16,0,0,0-.94-4,5.21,5.21,0,0,0-4.25-1.87A16.83,16.83,0,0,1,229,268.7c8.17-1.06,13.73,5.92,14.3,6.52-2.54-.08-6.67-1.15-11.35.59A29.44,29.44,0,0,0,223.45,280.71Z"/><path class="cls-5" d="M223.42,298.8a3,3,0,0,1-1,2.25,3.39,3.39,0,0,1-2.92.71,10.92,10.92,0,0,0,6.14,5.12c5.09,1.6,9.11-2,9.54-2.29a15.88,15.88,0,0,1-6.85-1.91A19.07,19.07,0,0,1,223.42,298.8Z"/><path class="cls-5" d="M237.09,296.53a6.26,6.26,0,1,1,0-12.51"/><path class="cls-5" d="M219.45,288.28a16.74,16.74,0,0,1-7.49-7.57,15.6,15.6,0,0,0,0,19.48,9.06,9.06,0,0,1,3.4-5.45,8.78,8.78,0,0,1,4.55-1.68C219.76,291.46,219.6,289.87,219.45,288.28Z"/><path class="cls-8" d="M244.89,290.11a12.84,12.84,0,0,1,5.62,5.36,12.69,12.69,0,0,1,1.52,6.68,26.36,26.36,0,0,0,8.36-10.94,5.55,5.55,0,0,0-.61-3.19,5.94,5.94,0,0,0-3.85-2.88,9.46,9.46,0,0,0-5.11,0A10,10,0,0,0,244.89,290.11Z"/><circle class="cls-6" cx="253.74" cy="289.72" r="1.96"/><circle class="cls-6" cx="263.38" cy="281.79" r="2.03"/><circle class="cls-6" cx="258.72" cy="274.4" r="1.3"/></svg>