<svg width="80" height="57" viewBox="0 0 80 57" fill="none" xmlns="http://www.w3.org/2000/svg">
<path d="M0.65625 12.5628H35.1875L37.8438 17.8753H3.3125L0.65625 12.5628ZM4.19792 23.1878H38.7292L41.3854 28.5003H6.85417L4.19792 23.1878ZM61.75 51.5211C64.6896 51.5211 67.0625 49.1482 67.0625 46.2086C67.0625 43.2691 64.6896 40.8961 61.75 40.8961C58.8104 40.8961 56.4375 43.2691 56.4375 46.2086C56.4375 49.1482 58.8104 51.5211 61.75 51.5211ZM67.0625 19.6462H58.2083V28.5003H74.0042L67.0625 19.6462ZM26.3333 51.5211C29.2729 51.5211 31.6458 49.1482 31.6458 46.2086C31.6458 43.2691 29.2729 40.8961 26.3333 40.8961C23.3937 40.8961 21.0208 43.2691 21.0208 46.2086C21.0208 49.1482 23.3937 51.5211 26.3333 51.5211ZM68.8333 14.3337L79.4583 28.5003V46.2086H72.375C72.375 52.0878 67.6292 56.8336 61.75 56.8336C55.8708 56.8336 51.125 52.0878 51.125 46.2086H36.9583C36.9583 52.0878 32.1771 56.8336 26.3333 56.8336C20.4542 56.8336 15.7083 52.0878 15.7083 46.2086H8.625V33.8128H15.7083V39.1253H18.4C20.3479 36.9649 23.1812 35.5836 26.3333 35.5836C29.4854 35.5836 32.3187 36.9649 34.2667 39.1253H51.125V7.25032H8.625C8.625 3.31907 11.7771 0.166992 15.7083 0.166992H58.2083V14.3337H68.8333Z" fill="black"/>
</svg>
