<svg width="72" height="54" viewBox="0 0 72 54" fill="none" xmlns="http://www.w3.org/2000/svg">
<path d="M9.29167 0.875C6.9434 0.875 4.6913 1.80785 3.03083 3.46833C1.37035 5.1288 0.4375 7.3809 0.4375 9.72917L0.4375 45.1458C0.4375 47.4941 1.37035 49.7462 3.03083 51.4067C4.6913 53.0672 6.9434 54 9.29167 54H62.4167C64.7649 54 67.017 53.0672 68.6775 51.4067C70.338 49.7462 71.2708 47.4941 71.2708 45.1458V9.72917C71.2708 7.3809 70.338 5.1288 68.6775 3.46833C67.017 1.80785 64.7649 0.875 62.4167 0.875H9.29167ZM66.8437 9.72917V31.8646H4.86458V9.72917C4.86458 8.55503 5.33101 7.42899 6.16125 6.59875C6.99148 5.76851 8.11753 5.30208 9.29167 5.30208H62.4167C63.5908 5.30208 64.7168 5.76851 65.5471 6.59875C66.3773 7.42899 66.8437 8.55503 66.8437 9.72917ZM62.4167 49.5729H9.29167C8.11753 49.5729 6.99148 49.1065 6.16125 48.2763C5.33101 47.446 4.86458 46.32 4.86458 45.1458V40.7188H66.8437V45.1458C66.8437 46.32 66.3773 47.446 65.5471 48.2763C64.7168 49.1065 63.5908 49.5729 62.4167 49.5729Z" fill="black"/>
</svg>
