<svg width="50" height="50" viewBox="0 0 50 50" fill="none" xmlns="http://www.w3.org/2000/svg">
<path d="M6.25016 28.1252L4.68766 25.0002H15.6252L14.3752 21.8752H4.16683L2.60433 18.7502H18.8543L17.6043 15.6252H2.31266L0.520996 12.5002H8.3335C8.3335 11.3951 8.77248 10.3353 9.55389 9.55388C10.3353 8.77248 11.3951 8.3335 12.5002 8.3335H37.5002V16.6668H43.7502L50.0002 25.0002V35.4168H45.8335C45.8335 37.0744 45.175 38.6641 44.0029 39.8362C42.8308 41.0084 41.2411 41.6668 39.5835 41.6668C37.9259 41.6668 36.3362 41.0084 35.1641 39.8362C33.992 38.6641 33.3335 37.0744 33.3335 35.4168H25.0002C25.0002 37.0744 24.3417 38.6641 23.1696 39.8362C21.9975 41.0084 20.4078 41.6668 18.7502 41.6668C17.0926 41.6668 15.5028 41.0084 14.3307 39.8362C13.1586 38.6641 12.5002 37.0744 12.5002 35.4168H8.3335V28.1252H6.25016ZM39.5835 38.5418C40.4123 38.5418 41.2072 38.2126 41.7932 37.6265C42.3793 37.0405 42.7085 36.2456 42.7085 35.4168C42.7085 34.588 42.3793 33.7932 41.7932 33.2071C41.2072 32.6211 40.4123 32.2918 39.5835 32.2918C38.7547 32.2918 37.9598 32.6211 37.3738 33.2071C36.7877 33.7932 36.4585 34.588 36.4585 35.4168C36.4585 36.2456 36.7877 37.0405 37.3738 37.6265C37.9598 38.2126 38.7547 38.5418 39.5835 38.5418ZM42.7085 19.7918H37.5002V25.0002H46.7918L42.7085 19.7918ZM18.7502 38.5418C19.579 38.5418 20.3738 38.2126 20.9599 37.6265C21.5459 37.0405 21.8752 36.2456 21.8752 35.4168C21.8752 34.588 21.5459 33.7932 20.9599 33.2071C20.3738 32.6211 19.579 32.2918 18.7502 32.2918C17.9214 32.2918 17.1265 32.6211 16.5405 33.2071C15.9544 33.7932 15.6252 34.588 15.6252 35.4168C15.6252 36.2456 15.9544 37.0405 16.5405 37.6265C17.1265 38.2126 17.9214 38.5418 18.7502 38.5418Z" fill="#605E5E"/>
</svg>
