<svg width="56" height="56" viewBox="0 0 56 56" fill="none" xmlns="http://www.w3.org/2000/svg">
<path d="M27.9998 20.71C23.9857 20.71 20.7099 23.9858 20.7099 27.9999C20.7099 32.0139 23.9857 35.2897 27.9998 35.2897C32.0138 35.2897 35.2896 32.0139 35.2896 27.9999C35.2896 23.9858 32.0138 20.71 27.9998 20.71ZM49.8638 27.9999C49.8638 24.9811 49.8912 21.9897 49.7217 18.9764C49.5521 15.4764 48.7537 12.3702 46.1943 9.81081C43.6295 7.24596 40.5287 6.45299 37.0287 6.28346C34.0099 6.11393 31.0185 6.14128 28.0052 6.14128C24.9865 6.14128 21.9951 6.11393 18.9818 6.28346C15.4818 6.45299 12.3756 7.25143 9.81618 9.81081C7.25133 12.3757 6.45836 15.4764 6.28883 18.9764C6.1193 21.9952 6.14665 24.9866 6.14665 27.9999C6.14665 31.0132 6.1193 34.01 6.28883 37.0233C6.45836 40.5233 7.2568 43.6296 9.81618 46.1889C12.381 48.7538 15.4818 49.5467 18.9818 49.7163C22.0006 49.8858 24.992 49.8585 28.0052 49.8585C31.024 49.8585 34.0154 49.8858 37.0287 49.7163C40.5287 49.5467 43.6349 48.7483 46.1943 46.1889C48.7592 43.6241 49.5521 40.5233 49.7217 37.0233C49.8967 34.01 49.8638 31.0186 49.8638 27.9999ZM27.9998 39.2163C21.7927 39.2163 16.7834 34.2069 16.7834 27.9999C16.7834 21.7928 21.7927 16.7835 27.9998 16.7835C34.2068 16.7835 39.2162 21.7928 39.2162 27.9999C39.2162 34.2069 34.2068 39.2163 27.9998 39.2163ZM39.6756 18.9436C38.2263 18.9436 37.056 17.7733 37.056 16.3241C37.056 14.8749 38.2263 13.7046 39.6756 13.7046C41.1248 13.7046 42.2951 14.8749 42.2951 16.3241C42.2955 16.6682 42.2281 17.009 42.0966 17.3271C41.9651 17.6451 41.7721 17.934 41.5288 18.1773C41.2855 18.4207 40.9965 18.6136 40.6785 18.7451C40.3605 18.8766 40.0197 18.9441 39.6756 18.9436Z" fill="#605E5E"/>
</svg>
