<svg width="63" height="63" viewBox="0 0 63 63" fill="none" xmlns="http://www.w3.org/2000/svg">
<path d="M52.9199 17.9549C45.3599 6.29991 29.9249 2.83491 17.9549 10.0799C6.29992 17.3249 2.51992 33.0749 10.0799 44.7299L10.7099 45.6749L8.18992 55.1249L17.6399 52.6049L18.5849 53.2349C22.6799 55.4399 27.0899 56.6999 31.4999 56.6999C36.2249 56.6999 40.9499 55.4399 45.0449 52.9199C56.6999 45.3599 60.1649 29.9249 52.9199 17.9549ZM46.3049 42.2099C45.0449 44.0999 43.4699 45.3599 41.2649 45.6749C40.0049 45.6749 38.4299 46.3049 32.1299 43.7849C26.7749 41.2649 22.3649 37.1699 19.2149 32.4449C17.3249 30.2399 16.3799 27.4049 16.0649 24.5699C16.0649 22.0499 17.0099 19.8449 18.5849 18.2699C19.2149 17.6399 19.8449 17.3249 20.4749 17.3249H22.0499C22.6799 17.3249 23.3099 17.3249 23.6249 18.5849C24.2549 20.1599 25.8299 23.9399 25.8299 24.2549C26.1449 24.5699 26.1449 25.1999 25.8299 25.5149C26.1449 26.1449 25.8299 26.7749 25.5149 27.0899C25.1999 27.4049 24.8849 28.0349 24.5699 28.3499C23.9399 28.6649 23.6249 29.2949 23.9399 29.9249C25.1999 31.8149 26.7749 33.7049 28.3499 35.2799C30.2399 36.8549 32.1299 38.1149 34.3349 39.0599C34.9649 39.3749 35.5949 39.3749 35.9099 38.7449C36.2249 38.1149 37.7999 36.5399 38.4299 35.9099C39.0599 35.2799 39.3749 35.2799 40.0049 35.5949L45.0449 38.1149C45.6749 38.4299 46.3049 38.7449 46.6199 39.0599C46.9349 40.0049 46.9349 41.2649 46.3049 42.2099Z" fill="#605E5E"/>
</svg>
