<svg width="47" height="47" viewBox="0 0 47 47" fill="none" xmlns="http://www.w3.org/2000/svg">
<path d="M38.6049 10.115C36.996 8.4912 35.0801 7.20386 32.9687 6.32798C30.8573 5.4521 28.5927 5.00519 26.3069 5.01329C16.7286 5.01329 8.92258 12.8171 8.91381 22.3976C8.91381 25.4661 9.71657 28.4512 11.2322 31.0941L8.77344 40.1065L17.9942 37.6895C20.545 39.0777 23.4028 39.8053 26.3069 39.806H26.3157C35.8961 39.806 43.7 32.0022 43.7087 22.413C43.7109 20.1276 43.2609 17.8644 42.3846 15.7537C41.5082 13.6431 40.2229 11.7267 38.6027 10.115H38.6049ZM26.3069 36.8626C23.7166 36.8635 21.1739 36.1664 18.9461 34.8447L18.4197 34.5289L12.9495 35.9633L14.4103 30.627L14.0681 30.0764C12.6201 27.7742 11.8543 25.1086 11.8594 22.3888C11.8594 14.4358 18.3451 7.94796 26.3157 7.94796C28.2145 7.94456 30.0953 8.31704 31.8495 9.04395C33.6037 9.77085 35.1967 10.8378 36.5366 12.1833C37.8811 13.5235 38.9471 15.1167 39.6729 16.8709C40.3986 18.6252 40.7699 20.5057 40.7653 22.4042C40.7565 30.3857 34.2709 36.8626 26.3069 36.8626V36.8626ZM34.2358 26.0407C33.8037 25.8236 31.6696 24.773 31.2682 24.6238C30.869 24.4813 30.5773 24.4067 30.2922 24.841C30.0004 25.273 29.167 26.2579 28.9169 26.5408C28.6669 26.8325 28.4081 26.8654 27.9738 26.6505C27.5417 26.4311 26.1402 25.9749 24.482 24.49C23.188 23.3385 22.3216 21.9129 22.0628 21.4808C21.8128 21.0465 22.0387 20.814 22.2558 20.5969C22.4466 20.4039 22.6879 20.088 22.905 19.838C23.1244 19.5879 23.1968 19.4037 23.3393 19.1142C23.4819 18.8203 23.4139 18.5702 23.3064 18.3531C23.1968 18.136 22.3304 15.9931 21.9641 15.1289C21.6132 14.2757 21.2557 14.3941 20.9881 14.3832C20.738 14.3678 20.4463 14.3678 20.1546 14.3678C19.9343 14.3733 19.7175 14.4243 19.5179 14.5175C19.3182 14.6107 19.14 14.7442 18.9943 14.9096C18.5952 15.3439 17.4787 16.3945 17.4787 18.5373C17.4787 20.6802 19.036 22.7398 19.2553 23.0315C19.4703 23.3232 22.3128 27.7076 26.6754 29.5939C27.7062 30.0435 28.5178 30.3089 29.1516 30.5107C30.1935 30.8441 31.1344 30.7937 31.8845 30.6862C32.718 30.559 34.4529 29.6334 34.8192 28.6179C35.1789 27.6002 35.1789 26.7316 35.0692 26.5496C34.9618 26.3653 34.67 26.2579 34.2358 26.0407V26.0407Z" fill="#605E5E"/>
</svg>
