<svg width="47" height="47" viewBox="0 0 47 47" fill="none" xmlns="http://www.w3.org/2000/svg">
<path d="M44.8827 10.685L36.4044 5.46742C36.3904 5.45898 36.3759 5.45237 36.362 5.44429C36.3234 5.42152 36.2841 5.39986 36.2439 5.37966C36.2176 5.3662 36.1912 5.35341 36.1646 5.34129C36.1264 5.32379 36.0877 5.30739 36.0484 5.29209C35.9172 5.24084 35.7813 5.20247 35.6426 5.17753C35.6026 5.17031 35.5626 5.16419 35.5226 5.15917C35.4489 5.15015 35.3749 5.14482 35.3008 5.1432C35.2837 5.14283 35.267 5.14062 35.2497 5.14062H29.3747C28.7904 5.14063 28.2301 5.37274 27.8169 5.78591C27.4037 6.19907 27.1716 6.75944 27.1716 7.34375C27.1716 8.31759 26.7848 9.25155 26.0962 9.94016C25.4075 10.6288 24.4736 11.0156 23.4997 11.0156C22.5259 11.0156 21.5919 10.6288 20.9033 9.94016C20.2147 9.25155 19.8279 8.31759 19.8279 7.34375C19.8279 6.75944 19.5958 6.19907 19.1826 5.78591C18.7694 5.37274 18.209 5.14062 17.6247 5.14062H11.7497C11.7338 5.14062 11.7185 5.14264 11.7027 5.14301C11.6283 5.14446 11.554 5.14973 11.48 5.1588C11.4381 5.16394 11.3961 5.17031 11.3543 5.17789C11.3225 5.18377 11.2908 5.19026 11.2594 5.19736C11.2225 5.20568 11.1858 5.2151 11.1492 5.22563C11.0818 5.24474 11.0153 5.26711 10.95 5.29264C10.9113 5.3077 10.8732 5.32379 10.8356 5.34093C10.7679 5.37189 10.7019 5.40633 10.6377 5.44411C10.6236 5.45237 10.6091 5.45879 10.5951 5.46742L2.11658 10.6848C1.36922 11.1406 0.810278 11.8495 0.54141 12.6826C0.272543 13.5157 0.311608 14.4176 0.651502 15.2243L3.46434 21.9749C3.74214 22.6448 4.21258 23.2172 4.81604 23.6194C5.4195 24.0217 6.1288 24.2357 6.85403 24.2344H9.54662V38.1875C9.54774 39.161 9.93495 40.0943 10.6233 40.7827C11.3117 41.471 12.245 41.8583 13.2185 41.8594H33.781C34.7545 41.8583 35.6878 41.471 36.3762 40.7827C37.0645 40.0943 37.4518 39.161 37.4529 38.1875V24.2344H40.1455C40.8707 24.2356 41.58 24.0216 42.1834 23.6193C42.7868 23.217 43.2572 22.6446 43.535 21.9747L46.3476 15.2241C46.6875 14.4175 46.7265 13.5156 46.4576 12.6826C46.1887 11.8496 45.6298 11.1408 44.8825 10.685H44.8827ZM7.34349 19.8281L4.96045 14.1088L9.54662 11.2864V19.8281H7.34349ZM33.0466 37.4531H13.9529V9.54688H15.7269C16.2066 11.2387 17.2252 12.7277 18.628 13.7881C20.0308 14.8484 21.7413 15.4222 23.4997 15.4222C25.2582 15.4222 26.9687 14.8484 28.3715 13.7881C29.7743 12.7277 30.7929 11.2387 31.2726 9.54688H33.0466V37.4531ZM39.656 19.8281H37.4529V11.2864L42.039 14.1088L39.656 19.8281Z" fill="#605E5E"/>
</svg>
