<svg width="72" height="72" viewBox="0 0 72 72" fill="none" xmlns="http://www.w3.org/2000/svg">
<g clip-path="url(#clip0_767_1653)">
<path d="M31.176 32.0266C30.914 32.3446 30.5636 32.5778 30.1691 32.6968C29.7746 32.8157 29.3537 32.8149 28.9596 32.6946C28.5655 32.5743 28.2159 32.3399 27.9551 32.0209C27.6943 31.7019 27.5339 31.3127 27.4942 30.9026C27.4545 30.4925 27.5374 30.0798 27.7323 29.7168C27.9271 29.3537 28.2253 29.0566 28.589 28.863C28.9528 28.6694 29.3657 28.588 29.7757 28.6291C30.1857 28.6702 30.5743 28.832 30.8923 29.094C31.3188 29.4452 31.5883 29.9515 31.6415 30.5015C31.6947 31.0515 31.5272 31.6001 31.176 32.0266ZM21.3259 21.9975L35.9889 20.5794C36.2619 20.5541 36.5373 20.583 36.7991 20.6643C37.0609 20.7456 37.3041 20.8779 37.5148 21.0534L55.204 35.6228C56.4835 36.6766 57.2919 38.1955 57.4515 39.8454C57.6111 41.4953 57.1087 43.1411 56.0548 44.4205L48.1079 54.0692C47.0541 55.3487 45.5352 56.1571 43.8852 56.3167C42.2353 56.4763 40.5896 55.9739 39.3101 54.9201L21.6209 40.3507C21.4083 40.1776 21.2319 39.9643 21.1019 39.7229C20.9719 39.4815 20.8908 39.2168 20.8633 38.944L19.4452 24.281C19.4176 24.0074 19.4444 23.731 19.5242 23.4678C19.6039 23.2046 19.735 22.9598 19.9099 22.7475C20.0847 22.5352 20.2999 22.3596 20.5429 22.2309C20.786 22.1022 21.0521 22.0228 21.3259 21.9975V21.9975ZM24.9292 37.6775L41.9591 51.7038C42.3856 52.0551 42.9342 52.2226 43.4841 52.1694C44.0341 52.1162 44.5404 51.8467 44.8917 51.4202L52.8386 41.7716C53.1899 41.3451 53.3574 40.7965 53.3042 40.2465C53.251 39.6966 52.9815 39.1903 52.555 38.839L35.5251 24.8127L23.7947 25.9472L24.9292 37.6775Z" fill="#605E5E"/>
</g>
<defs>
<clipPath id="clip0_767_1653">
<rect width="50" height="50" fill="white" transform="matrix(-0.771892 -0.635753 -0.635753 0.771892 71.1914 32.5967)"/>
</clipPath>
</defs>
</svg>
