<svg width="42" height="42" viewBox="0 0 42 42" fill="none" xmlns="http://www.w3.org/2000/svg">
<path d="M37.9924 15.2424C40.1799 13.0549 39.1824 10.4999 37.9924 9.25744L32.7424 4.00744C30.5374 1.81994 27.9999 2.81744 26.7574 4.00744L23.7824 6.99994H19.2499C15.9249 6.99994 13.9999 8.74994 13.0199 10.7624L5.24994 18.5324V25.5324L4.00744 26.7574C1.81994 28.9624 2.81744 31.4999 4.00744 32.7424L9.25744 37.9924C10.2024 38.9374 11.2174 39.2874 12.1799 39.2874C13.4224 39.2874 14.5599 38.6749 15.2424 37.9924L19.9674 33.2499H26.2499C29.2249 33.2499 30.7299 31.3949 31.2724 29.5749C33.2499 29.0499 34.3349 27.5449 34.7724 26.0749C37.4849 25.3749 38.4999 22.8024 38.4999 20.9999V15.7499H37.4674L37.9924 15.2424ZM34.9999 20.9999C34.9999 21.7874 34.6674 22.7499 33.2499 22.7499H31.4999V24.4999C31.4999 25.2874 31.1674 26.2499 29.7499 26.2499H27.9999V27.9999C27.9999 28.7874 27.6674 29.7499 26.2499 29.7499H18.5324L12.7924 35.4899C12.2499 35.9974 11.9349 35.6999 11.7424 35.5074L6.50994 30.2924C6.00244 29.7499 6.29994 29.4349 6.49244 29.2424L8.74994 26.9674V19.9674L12.2499 16.4674V19.2499C12.2499 21.3674 13.6499 24.4999 17.4999 24.4999C21.3499 24.4999 22.7499 21.3674 22.7499 19.2499H34.9999V20.9999ZM35.5074 12.7574L32.5324 15.7499H19.2499V19.2499C19.2499 20.0374 18.9174 20.9999 17.4999 20.9999C16.0824 20.9999 15.7499 20.0374 15.7499 19.2499V13.9999C15.7499 13.1949 16.0474 10.4999 19.2499 10.4999H25.2174L29.2074 6.50994C29.7499 6.00244 30.0649 6.29994 30.2574 6.49244L35.4899 11.7074C35.9974 12.2499 35.6999 12.5649 35.5074 12.7574V12.7574Z" fill="#605E5E"/>
</svg>
