<svg width="42" height="42" viewBox="0 0 42 42" fill="none" xmlns="http://www.w3.org/2000/svg">
<path d="M13.0408 25.5938C12.9552 25.4433 12.8408 25.3112 12.704 25.2052C12.5672 25.0991 12.4107 25.0212 12.2437 24.9758C12.0767 24.9305 11.9023 24.9186 11.7306 24.9409C11.559 24.9632 11.3935 25.0193 11.2436 25.1058C11.0936 25.1924 10.9623 25.3077 10.8572 25.4452C10.7521 25.5827 10.6752 25.7396 10.6309 25.907C10.5867 26.0743 10.576 26.2488 10.5994 26.4203C10.6229 26.5918 10.68 26.7569 10.7675 26.9062C11.8041 28.7027 13.2956 30.1944 15.0918 31.2312C16.8881 32.268 18.9258 32.8134 20.9998 32.8125C23.0737 32.8129 25.1112 32.2673 26.9074 31.2305C28.7035 30.1937 30.1951 28.7023 31.232 26.9062C31.3196 26.7569 31.3767 26.5918 31.4002 26.4203C31.4236 26.2488 31.4129 26.0743 31.3687 25.907C31.3244 25.7396 31.2475 25.5827 31.1424 25.4452C31.0372 25.3077 30.9059 25.1924 30.756 25.1058C30.6061 25.0193 30.4406 24.9632 30.2689 24.9409C30.0973 24.9186 29.9229 24.9305 29.7559 24.9758C29.5888 25.0212 29.4324 25.0991 29.2956 25.2052C29.1588 25.3112 29.0443 25.4433 28.9588 25.5938C28.1526 26.9911 26.9925 28.1515 25.5953 28.9579C24.1981 29.7644 22.613 30.1885 20.9998 30.1875C19.3865 30.1885 17.8015 29.7644 16.4043 28.9579C15.0071 28.1515 13.847 26.9911 13.0408 25.5938V25.5938ZM18.3748 13.4295V13.125C18.3748 12.4288 18.0982 11.7611 17.6059 11.2688C17.1137 10.7766 16.446 10.5 15.7498 10.5H8.60979C8.21078 10.5 7.81702 10.591 7.45844 10.766C7.09986 10.941 6.7859 11.1955 6.54042 11.5101C6.29494 11.8246 6.1244 12.191 6.04177 12.5814C5.95914 12.9718 5.96658 13.3758 6.06354 13.7629L6.87992 17.0231C7.16382 18.1589 7.81921 19.1672 8.74191 19.8878C9.66462 20.6083 10.8017 20.9998 11.9724 21H13.1248C14.4442 21.0003 15.7154 20.5038 16.6854 19.6093C17.6553 18.7147 18.2528 17.4878 18.359 16.1726C19.2086 15.8817 20.1018 15.7388 20.9998 15.75C22.0314 15.75 22.9423 15.918 23.6405 16.1726C23.7468 17.4878 24.3443 18.7147 25.3142 19.6093C26.2841 20.5038 27.5553 21.0003 28.8748 21H30.0245C31.1953 20.9998 32.3323 20.6083 33.255 19.8878C34.1778 19.1672 34.8331 18.1589 35.117 17.0231L35.9334 13.7629C36.0303 13.376 36.0378 12.9722 35.9553 12.582C35.8728 12.1919 35.7025 11.8256 35.4574 11.5111C35.2122 11.1966 34.8985 10.9421 34.5403 10.7669C34.182 10.5917 33.7886 10.5004 33.3898 10.5H26.2498C25.5536 10.5 24.8859 10.7766 24.3936 11.2688C23.9014 11.7611 23.6248 12.4288 23.6248 13.125V13.4295C22.7651 13.2236 21.8838 13.1214 20.9998 13.125C20.081 13.125 19.1885 13.23 18.3748 13.4295Z" fill="#605E5E"/>
<path d="M42 21C42 26.5695 39.7875 31.911 35.8492 35.8492C31.911 39.7875 26.5695 42 21 42C15.4305 42 10.089 39.7875 6.15076 35.8492C2.21249 31.911 0 26.5695 0 21C0 15.4305 2.21249 10.089 6.15076 6.15076C10.089 2.21249 15.4305 0 21 0C26.5695 0 31.911 2.21249 35.8492 6.15076C39.7875 10.089 42 15.4305 42 21V21ZM39.375 21C39.375 16.1266 37.4391 11.4529 33.9931 8.00691C30.5471 4.56093 25.8734 2.625 21 2.625C16.1266 2.625 11.4529 4.56093 8.00691 8.00691C4.56093 11.4529 2.625 16.1266 2.625 21C2.625 25.8734 4.56093 30.5471 8.00691 33.9931C11.4529 37.4391 16.1266 39.375 21 39.375C25.8734 39.375 30.5471 37.4391 33.9931 33.9931C37.4391 30.5471 39.375 25.8734 39.375 21Z" fill="#605E5E"/>
</svg>
