<svg width="43" height="56" viewBox="0 0 43 56" fill="none" xmlns="http://www.w3.org/2000/svg">
<path d="M7.70008 13.8001V8.62509C7.70008 7.43829 7.92433 6.32394 8.37283 5.28203C8.82133 4.22288 9.44233 3.30519 10.2324 2.53239C11.0052 1.74234 11.9229 1.12133 12.982 0.672835C14.0239 0.224335 15.1383 8.5209e-05 16.3251 8.5209e-05C17.2945 8.5209e-05 18.2191 0.151885 19.1023 0.458935C19.9855 0.765985 20.7928 1.19723 21.5277 1.75268C23.0026 0.615619 24.8127 -0.00069588 26.6751 8.5209e-05C28.375 -0.00749369 30.0388 0.490663 31.4548 1.43121C32.8708 2.37175 33.9752 3.71218 34.6273 5.28203C35.0758 6.32394 35.3001 7.43829 35.3001 8.62509V13.8001H38.7501C39.6651 13.8001 40.5426 14.1636 41.1896 14.8106C41.8366 15.4576 42.2001 16.3351 42.2001 17.2501V44.8501C42.2001 46.2887 41.931 47.6342 41.3928 48.8935C40.8546 50.132 40.1163 51.2291 39.1813 52.1813C38.5603 52.7885 37.8807 53.3129 37.132 53.7545L35.0965 52.8713L33.3888 52.1089L32.6574 51.7052L31.8915 51.136L31.06 50.4046L30.1354 49.4179C29.0052 48.1664 28.3859 46.5363 28.4001 44.8501V13.8001H31.8501V8.62509C31.8501 7.90749 31.7155 7.23129 31.4464 6.60339C31.0559 5.66214 30.393 4.85906 29.5429 4.29721C28.6927 3.73536 27.6941 3.44036 26.6751 3.45009C25.6159 3.45009 24.6637 3.74678 23.8185 4.34018C24.562 5.64572 24.9521 7.12266 24.9501 8.62509V44.8501C24.9355 47.3999 25.8786 49.8624 27.5928 51.7501L28.6588 52.8886L29.7214 53.8201L30.7875 54.6136L31.8501 55.2001H11.1501C8.41207 55.1995 5.78585 54.114 3.84643 52.1813C2.89978 51.2368 2.14114 50.1211 1.61083 48.8935C1.0658 47.6157 0.789811 46.2393 0.800081 44.8501V17.2501C0.800081 16.3351 1.16356 15.4576 1.81056 14.8106C2.45756 14.1636 3.33508 13.8001 4.25008 13.8001H7.70008ZM11.1501 13.8001H21.5001V8.62509C21.5001 7.90749 21.3655 7.23129 21.0964 6.60339C20.7059 5.66214 20.043 4.85906 19.1929 4.29721C18.3427 3.73536 17.3441 3.44036 16.3251 3.45009C15.6075 3.45009 14.9313 3.58464 14.3034 3.85374C13.3621 4.24425 12.5591 4.90712 11.9972 5.75728C11.4354 6.60744 11.1404 7.60609 11.1501 8.62509V13.8001Z" fill="#605E5E"/>
</svg>
