<svg width="43" height="43" viewBox="0 0 43 43" fill="none" xmlns="http://www.w3.org/2000/svg">
<path d="M0 40.3125H43V43H0V40.3125Z" fill="#605E5E"/>
<path d="M0 0V16.125C0.0134375 18.0923 1.07769 19.8069 2.66331 20.7341L2.6875 37.625H26.875V24.1875H34.9375V37.625H40.3125V20.7475C41.9223 19.8069 42.9866 18.0922 43 16.1277V0H0ZM10.75 5.375H16.125V16.125C16.125 16.8378 15.8419 17.5213 15.3378 18.0253C14.8338 18.5294 14.1503 18.8125 13.4375 18.8125C12.7247 18.8125 12.0412 18.5294 11.5372 18.0253C11.0331 17.5213 10.75 16.8378 10.75 16.125V5.375ZM5.375 18.8125C4.66223 18.8125 3.97865 18.5294 3.47465 18.0253C2.97065 17.5213 2.6875 16.8378 2.6875 16.125V5.375H8.0625V16.125C8.0625 16.8378 7.77935 17.5213 7.27535 18.0253C6.77135 18.5294 6.08777 18.8125 5.375 18.8125ZM21.5 32.25H8.0625V24.1875H21.5V32.25ZM24.1875 16.125C24.1875 16.8378 23.9044 17.5213 23.4003 18.0253C22.8963 18.5294 22.2128 18.8125 21.5 18.8125C20.7872 18.8125 20.1037 18.5294 19.5997 18.0253C19.0956 17.5213 18.8125 16.8378 18.8125 16.125V5.375H24.1875V16.125ZM32.25 16.125C32.25 16.8378 31.9669 17.5213 31.4628 18.0253C30.9588 18.5294 30.2753 18.8125 29.5625 18.8125C28.8497 18.8125 28.1662 18.5294 27.6622 18.0253C27.1581 17.5213 26.875 16.8378 26.875 16.125V5.375H32.25V16.125ZM40.3125 16.125C40.3125 16.8378 40.0294 17.5213 39.5253 18.0253C39.0213 18.5294 38.3378 18.8125 37.625 18.8125C36.9122 18.8125 36.2287 18.5294 35.7247 18.0253C35.2206 17.5213 34.9375 16.8378 34.9375 16.125V5.375H40.3125V16.125Z" fill="#605E5E"/>
</svg>
