<svg width="43" height="43" viewBox="0 0 43 43" fill="none" xmlns="http://www.w3.org/2000/svg">
<path d="M0 8.5998C0 6.2348 1.935 4.2998 4.3 4.2998H36.55C37.1202 4.2998 37.6671 4.52632 38.0703 4.92952C38.4735 5.33273 38.7 5.87959 38.7 6.4498V8.5998H4.3V10.7498H40.85C41.4202 10.7498 41.9671 10.9763 42.3703 11.3795C42.7735 11.7827 43 12.3296 43 12.8998V34.3998C43 35.5402 42.547 36.634 41.7406 37.4404C40.9342 38.2468 39.8404 38.6998 38.7 38.6998H4.3C3.15957 38.6998 2.06585 38.2468 1.25944 37.4404C0.453035 36.634 0 35.5402 0 34.3998V8.5998ZM35.475 27.9498C36.3303 27.9498 37.1506 27.61 37.7554 27.0052C38.3602 26.4004 38.7 25.5801 38.7 24.7248C38.7 23.8695 38.3602 23.0492 37.7554 22.4444C37.1506 21.8396 36.3303 21.4998 35.475 21.4998C34.6197 21.4998 33.7994 21.8396 33.1946 22.4444C32.5898 23.0492 32.25 23.8695 32.25 24.7248C32.25 25.5801 32.5898 26.4004 33.1946 27.0052C33.7994 27.61 34.6197 27.9498 35.475 27.9498Z" fill="#605E5E"/>
</svg>
