<svg width="50" height="50" viewBox="0 0 50 50" fill="none" xmlns="http://www.w3.org/2000/svg">
<path d="M25 3.125C12.9199 3.125 3.125 12.9199 3.125 25C3.125 37.0801 12.9199 46.875 25 46.875C37.0801 46.875 46.875 37.0801 46.875 25C46.875 12.9199 37.0801 3.125 25 3.125ZM33.6182 31.7236L32.2217 33.6279C32.1913 33.6694 32.153 33.7044 32.1091 33.7311C32.0651 33.7577 32.0163 33.7754 31.9655 33.7831C31.9147 33.7908 31.8628 33.7884 31.8129 33.776C31.7631 33.7636 31.7161 33.7415 31.6748 33.7109L23.5986 27.8223C23.5483 27.7861 23.5074 27.7384 23.4794 27.6832C23.4513 27.628 23.437 27.5668 23.4375 27.5049V14.0625C23.4375 13.8477 23.6133 13.6719 23.8281 13.6719H26.1768C26.3916 13.6719 26.5674 13.8477 26.5674 14.0625V26.1475L33.5303 31.1816C33.7061 31.3037 33.7451 31.5479 33.6182 31.7236Z" fill="#605E5E"/>
</svg>
