<svg width="50" height="50" viewBox="0 0 50 50" fill="none" xmlns="http://www.w3.org/2000/svg">
<path d="M24.9998 4.1665C13.4998 4.1665 4.1665 13.4998 4.1665 24.9998C4.1665 36.4998 13.4998 45.8332 24.9998 45.8332C36.4998 45.8332 45.8332 36.4998 45.8332 24.9998C45.8332 13.4998 36.4998 4.1665 24.9998 4.1665ZM26.8957 37.8123C26.7501 37.9551 26.5658 38.052 26.3657 38.091C26.1655 38.13 25.9583 38.1094 25.7698 38.0317C25.5812 37.9541 25.4196 37.8228 25.305 37.6542C25.1903 37.4856 25.1277 37.2871 25.1248 37.0832V35.4165H24.9998C22.3332 35.4165 19.6665 34.3957 17.6248 32.3748C16.2103 30.9569 15.2341 29.1615 14.8129 27.2034C14.3918 25.2453 14.5434 23.2073 15.2498 21.3332C15.6457 20.2707 17.0415 19.9998 17.8332 20.8123C18.2915 21.2707 18.3957 21.9373 18.1873 22.5207C17.229 25.104 17.7707 28.104 19.854 30.1873C21.3123 31.6457 23.229 32.3332 25.1457 32.2915V30.3332C25.1457 29.3957 26.2707 28.9373 26.9165 29.604L30.2915 32.979C30.7082 33.3957 30.7082 34.0415 30.2915 34.4582L26.8957 37.8123ZM32.1665 29.2082C31.9512 28.9866 31.8034 28.7081 31.7407 28.4056C31.678 28.103 31.7028 27.7888 31.8123 27.4998C32.7707 24.9165 32.229 21.9165 30.1457 19.8332C28.6873 18.3748 26.7707 17.6665 24.8748 17.7082V19.6665C24.8748 20.604 23.7498 21.0623 23.104 20.3957L19.7082 17.0415C19.2915 16.6248 19.2915 15.979 19.7082 15.5623L23.0832 12.1873C23.2288 12.0446 23.4131 11.9477 23.6132 11.9087C23.8133 11.8697 24.0205 11.8903 24.2091 11.9679C24.3976 12.0456 24.5592 12.1768 24.6739 12.3454C24.7885 12.5141 24.8511 12.7126 24.854 12.9165V14.604C27.5623 14.5623 30.2915 15.5415 32.354 17.6248C33.7685 19.0428 34.7447 20.8382 35.1659 22.7963C35.5871 24.7544 35.4354 26.7923 34.729 28.6665C34.3332 29.7498 32.9582 30.0207 32.1665 29.2082Z" fill="#605E5E"/>
</svg>
