<svg width="65" height="64" viewBox="0 0 65 64" fill="none" xmlns="http://www.w3.org/2000/svg">
<path d="M54.8171 9.29353C51.9075 6.35692 48.4424 4.02876 44.624 2.44472C40.8055 0.860683 36.71 0.052439 32.5761 0.0670902C15.2537 0.0670902 1.13637 14.1804 1.1205 31.5068C1.1205 37.0561 2.5723 42.4548 5.31326 47.2346L0.866638 63.5336L17.5425 59.1623C22.1557 61.6729 27.324 62.9888 32.5761 62.9901H32.5919C49.9183 62.9901 64.0317 48.8768 64.0475 31.5346C64.0515 27.4015 63.2376 23.3085 61.6527 19.4913C60.0679 15.6742 57.7434 12.2084 54.8131 9.29353H54.8171ZM32.5761 57.6669C27.8914 57.6685 23.2929 56.4078 19.264 54.0176L18.312 53.4464L8.41915 56.0406L11.0609 46.3897L10.4421 45.3941C7.82339 41.2304 6.43839 36.4097 6.44772 31.4909C6.44772 17.1078 18.1771 5.37447 32.5919 5.37447C36.026 5.36831 39.4274 6.04196 42.5999 7.35658C45.7724 8.67119 48.6533 10.6008 51.0766 13.0341C53.5082 15.4579 55.436 18.3392 56.7486 21.5117C58.0612 24.6843 58.7326 28.0853 58.7243 31.5187C58.7084 45.9533 46.979 57.6669 32.5761 57.6669V57.6669ZM46.9155 38.0954C46.1341 37.7027 42.2745 35.8027 41.5486 35.5329C40.8267 35.2751 40.2992 35.1403 39.7835 35.9256C39.2559 36.7071 37.7486 38.4881 37.2964 38.9998C36.8442 39.5274 36.3761 39.5869 35.5907 39.1981C34.8093 38.8015 32.2746 37.9764 29.2758 35.291C26.9355 33.2085 25.3687 30.6302 24.9006 29.8487C24.4484 29.0633 24.857 28.6429 25.2497 28.2502C25.5948 27.9011 26.0311 27.3299 26.4238 26.8777C26.8205 26.4255 26.9514 26.0923 27.2092 25.5687C27.467 25.0372 27.3441 24.585 27.1497 24.1923C26.9514 23.7996 25.3845 19.9242 24.7221 18.3613C24.0874 16.8183 23.4409 17.0325 22.9569 17.0126C22.5047 16.9849 21.9772 16.9849 21.4496 16.9849C21.0512 16.9948 20.6592 17.0869 20.2981 17.2555C19.937 17.4241 19.6146 17.6655 19.3512 17.9646C18.6293 18.75 16.6103 20.6501 16.6103 24.5255C16.6103 28.4009 19.4266 32.1256 19.8233 32.6532C20.212 33.1807 25.3528 41.1101 33.2425 44.5214C35.1068 45.3346 36.5745 45.8145 37.7208 46.1795C39.605 46.7824 41.3067 46.6911 42.6633 46.4968C44.1706 46.2667 47.3082 44.5928 47.9707 42.7562C48.6212 40.9157 48.6212 39.3449 48.4229 39.0157C48.2285 38.6825 47.7009 38.4881 46.9155 38.0954V38.0954Z" fill="black"/>
</svg>
